<svg width="161" height="42" viewBox="0 0 161 42" fill="none" xmlns="http://www.w3.org/2000/svg">
<ellipse cx="20.0155" cy="20.7615" rx="20.0155" ry="20" fill="#FFB700"/>
<g clip-path="url(#clip0_1457_1270)">
<path d="M20.0155 0.761475C8.96436 0.761475 0 9.71889 0 20.7615C0 24.6675 1.11687 28.3092 3.0567 31.3929C3.4094 28.9259 5.49618 27.0463 8.05323 27.0463C8.72923 27.0463 9.37584 27.1932 9.99306 27.4281C10.287 25.9891 11.5802 24.9024 13.1085 24.9024C13.9315 24.9024 14.6663 25.2255 15.2247 25.7248C16.1065 22.2886 19.2219 19.7629 22.9253 19.7629C27.1282 19.7629 30.5964 23.0229 30.8609 27.1638C31.2136 27.1051 31.5663 27.0463 31.919 27.0463C34.4761 27.0463 36.5922 28.9553 36.9155 31.3929C38.8554 28.3092 39.9722 24.6675 39.9722 20.7615C40.031 9.71889 31.0667 0.761475 20.0155 0.761475ZM32.0366 7.8393L21.1324 14.506L18.0463 18.8525C17.6054 19.4693 16.9882 19.9392 16.2534 20.1447L14.4605 20.7027L15.695 17.7365L8.61167 21.0258C7.61236 21.5838 6.52488 22.0243 5.40801 22.3474C4.93775 22.4648 4.58505 21.9656 4.84957 21.5838L6.20158 19.7042L4.02662 18.8231L6.26036 17.4135L8.81741 17.5603L13.7258 14.7115L3.70331 13.4781L6.67184 11.9509C7.08332 11.716 7.55358 11.5985 8.05323 11.5691L20.7503 10.7468L26.511 7.48688C27.8924 6.69393 29.5089 6.42961 31.0667 6.72329L31.8896 6.87014C32.3305 6.92887 32.4481 7.57498 32.0366 7.8393Z" fill="#006CE4"/>
</g>
<path d="M56.1563 7.51809V33.7615H51.2176V7.51809H56.1563ZM64.3033 7.51809V11.4294H43.1608V7.51809H64.3033ZM62.1058 24.2086V23.8301C62.1058 22.4002 62.31 21.0844 62.7186 19.8828C63.1271 18.6691 63.7219 17.6177 64.503 16.7285C65.2841 15.8393 66.2393 15.1484 67.3689 14.6557C68.4984 14.151 69.7841 13.8987 71.2261 13.8987C72.692 13.8987 73.9898 14.151 75.1193 14.6557C76.2609 15.1484 77.2221 15.8393 78.0032 16.7285C78.7843 17.6177 79.3791 18.6691 79.7876 19.8828C80.1962 21.0844 80.4004 22.4002 80.4004 23.8301V24.2086C80.4004 25.6265 80.1962 26.9423 79.7876 28.1559C79.3791 29.3575 78.7843 30.409 78.0032 31.3102C77.2221 32.1994 76.2669 32.8903 75.1373 33.383C74.0078 33.8756 72.7161 34.122 71.2621 34.122C69.8202 34.122 68.5284 33.8756 67.3869 33.383C66.2454 32.8903 65.2841 32.1994 64.503 31.3102C63.7219 30.409 63.1271 29.3575 62.7186 28.1559C62.31 26.9423 62.1058 25.6265 62.1058 24.2086ZM66.8642 23.8301V24.2086C66.8642 25.0617 66.9483 25.8608 67.1165 26.6058C67.2848 27.3508 67.5431 28.0057 67.8916 28.5705C68.24 29.1352 68.6906 29.5798 69.2434 29.9043C69.8082 30.2167 70.4811 30.3729 71.2621 30.3729C72.0312 30.3729 72.692 30.2167 73.2448 29.9043C73.7975 29.5798 74.2481 29.1352 74.5966 28.5705C74.9571 28.0057 75.2215 27.3508 75.3897 26.6058C75.5579 25.8608 75.642 25.0617 75.642 24.2086V23.8301C75.642 22.989 75.5579 22.2019 75.3897 21.4689C75.2215 20.7239 74.9571 20.069 74.5966 19.5043C74.2481 18.9275 73.7915 18.4769 73.2268 18.1524C72.674 17.816 72.0071 17.6477 71.2261 17.6477C70.457 17.6477 69.7961 17.816 69.2434 18.1524C68.6906 18.4769 68.24 18.9275 67.8916 19.5043C67.5431 20.069 67.2848 20.7239 67.1165 21.4689C66.9483 22.2019 66.8642 22.989 66.8642 23.8301ZM93.9922 29.1292V14.2592H98.7867V33.7615H94.2806L93.9922 29.1292ZM94.605 25.0918L96.083 25.0557C96.083 26.3655 95.9388 27.5731 95.6504 28.6786C95.362 29.7841 94.9114 30.7454 94.2986 31.5625C93.6978 32.3676 92.9348 32.9984 92.0095 33.4551C91.0843 33.8997 89.9908 34.122 88.7291 34.122C87.7678 34.122 86.8906 33.9898 86.0976 33.7254C85.3045 33.4491 84.6196 33.0225 84.0428 32.4457C83.478 31.8569 83.0394 31.1059 82.727 30.1927C82.4146 29.2674 82.2584 28.1559 82.2584 26.8582V14.2592H87.0168V26.8942C87.0168 27.5431 87.0889 28.0838 87.2331 28.5164C87.3893 28.949 87.5996 29.3035 87.8639 29.5798C88.1403 29.8442 88.4587 30.0365 88.8192 30.1566C89.1917 30.2648 89.5883 30.3188 90.0088 30.3188C91.1624 30.3188 92.0696 30.0905 92.7305 29.6339C93.4034 29.1653 93.8841 28.5404 94.1724 27.7594C94.4608 26.9663 94.605 26.0771 94.605 25.0918ZM106.286 18.2426V33.7615H101.528V14.2592H106.034L106.286 18.2426ZM112.216 14.133L112.144 18.567C111.88 18.5189 111.579 18.4829 111.243 18.4588C110.918 18.4348 110.612 18.4228 110.324 18.4228C109.591 18.4228 108.948 18.5249 108.395 18.7292C107.842 18.9215 107.38 19.2038 107.007 19.5763C106.647 19.9489 106.37 20.4055 106.178 20.9462C105.986 21.4749 105.878 22.0757 105.854 22.7486L104.826 22.6225C104.826 21.3848 104.952 20.2372 105.205 19.1798C105.457 18.1224 105.824 17.1971 106.304 16.4041C106.785 15.611 107.386 14.9982 108.107 14.5656C108.84 14.121 109.681 13.8987 110.63 13.8987C110.894 13.8987 111.177 13.9227 111.477 13.9708C111.79 14.0068 112.036 14.0609 112.216 14.133ZM118.4 14.2592V33.7615H113.624V14.2592H118.4ZM113.299 9.1583C113.299 8.44935 113.539 7.86055 114.02 7.39192C114.513 6.92329 115.174 6.68897 116.003 6.68897C116.832 6.68897 117.487 6.92329 117.967 7.39192C118.46 7.86055 118.706 8.44935 118.706 9.1583C118.706 9.85524 118.46 10.438 117.967 10.9067C117.487 11.3753 116.832 11.6096 116.003 11.6096C115.174 11.6096 114.513 11.3753 114.02 10.9067C113.539 10.438 113.299 9.85524 113.299 9.1583ZM133.866 14.2592H138.192V33.1667C138.192 34.9331 137.808 36.4291 137.039 37.6547C136.282 38.8924 135.218 39.8297 133.848 40.4665C132.478 41.1154 130.886 41.4398 129.072 41.4398C128.291 41.4398 127.444 41.3317 126.53 41.1154C125.629 40.8991 124.758 40.5566 123.917 40.088C123.088 39.6314 122.397 39.0366 121.844 38.3036L123.989 35.4918C124.638 36.2488 125.371 36.8196 126.188 37.2041C127.005 37.6007 127.888 37.7989 128.838 37.7989C129.799 37.7989 130.616 37.6187 131.289 37.2582C131.974 36.9097 132.496 36.393 132.857 35.7081C133.229 35.0352 133.416 34.2061 133.416 33.2207V18.7112L133.866 14.2592ZM120.691 24.2446V23.8661C120.691 22.3761 120.871 21.0243 121.231 19.8107C121.592 18.585 122.108 17.5336 122.781 16.6564C123.466 15.7792 124.289 15.1003 125.251 14.6197C126.224 14.139 127.317 13.8987 128.531 13.8987C129.817 13.8987 130.898 14.133 131.775 14.6016C132.665 15.0703 133.398 15.7372 133.974 16.6023C134.563 17.4675 135.02 18.4949 135.344 19.6845C135.681 20.8621 135.939 22.1598 136.119 23.5777V24.6051C135.951 25.987 135.681 27.2547 135.308 28.4083C134.948 29.5618 134.467 30.5712 133.866 31.4363C133.265 32.2895 132.52 32.9504 131.631 33.419C130.742 33.8876 129.697 34.122 128.495 34.122C127.293 34.122 126.212 33.8756 125.251 33.383C124.289 32.8903 123.466 32.1994 122.781 31.3102C122.108 30.421 121.592 29.3756 121.231 28.1739C120.871 26.9723 120.691 25.6626 120.691 24.2446ZM125.449 23.8661V24.2446C125.449 25.0858 125.533 25.8728 125.701 26.6058C125.87 27.3388 126.128 27.9877 126.476 28.5525C126.825 29.1052 127.263 29.5378 127.792 29.8502C128.321 30.1626 128.952 30.3188 129.685 30.3188C130.67 30.3188 131.475 30.1146 132.1 29.706C132.737 29.2854 133.217 28.7147 133.542 27.9937C133.878 27.2607 134.095 26.4376 134.191 25.5244V22.6946C134.131 21.9736 133.998 21.3067 133.794 20.6939C133.602 20.081 133.332 19.5523 132.983 19.1077C132.635 18.6631 132.19 18.3146 131.649 18.0623C131.109 17.81 130.466 17.6838 129.721 17.6838C129 17.6838 128.369 17.846 127.828 18.1705C127.287 18.4829 126.843 18.9215 126.494 19.4862C126.146 20.051 125.882 20.7059 125.701 21.4509C125.533 22.1959 125.449 23.001 125.449 23.8661ZM140.158 24.2086V23.8301C140.158 22.4002 140.362 21.0844 140.771 19.8828C141.18 18.6691 141.774 17.6177 142.555 16.7285C143.336 15.8393 144.292 15.1484 145.421 14.6557C146.551 14.151 147.837 13.8987 149.278 13.8987C150.744 13.8987 152.042 14.151 153.172 14.6557C154.313 15.1484 155.275 15.8393 156.056 16.7285C156.837 17.6177 157.431 18.6691 157.84 19.8828C158.249 21.0844 158.453 22.4002 158.453 23.8301V24.2086C158.453 25.6265 158.249 26.9423 157.84 28.1559C157.431 29.3575 156.837 30.409 156.056 31.3102C155.275 32.1994 154.319 32.8903 153.19 33.383C152.06 33.8756 150.769 34.122 149.315 34.122C147.873 34.122 146.581 33.8756 145.439 33.383C144.298 32.8903 143.336 32.1994 142.555 31.3102C141.774 30.409 141.18 29.3575 140.771 28.1559C140.362 26.9423 140.158 25.6265 140.158 24.2086ZM144.917 23.8301V24.2086C144.917 25.0617 145.001 25.8608 145.169 26.6058C145.337 27.3508 145.596 28.0057 145.944 28.5705C146.292 29.1352 146.743 29.5798 147.296 29.9043C147.861 30.2167 148.533 30.3729 149.315 30.3729C150.084 30.3729 150.744 30.2167 151.297 29.9043C151.85 29.5798 152.301 29.1352 152.649 28.5705C153.01 28.0057 153.274 27.3508 153.442 26.6058C153.61 25.8608 153.694 25.0617 153.694 24.2086V23.8301C153.694 22.989 153.61 22.2019 153.442 21.4689C153.274 20.7239 153.01 20.069 152.649 19.5043C152.301 18.9275 151.844 18.4769 151.279 18.1524C150.726 17.816 150.06 17.6477 149.278 17.6477C148.509 17.6477 147.849 17.816 147.296 18.1524C146.743 18.4769 146.292 18.9275 145.944 19.5043C145.596 20.069 145.337 20.7239 145.169 21.4689C145.001 22.2019 144.917 22.989 144.917 23.8301Z" fill="black"/>
<defs>
<clipPath id="clip0_1457_1270">
<rect width="40.031" height="30.6314" fill="white" transform="translate(0 0.761475)"/>
</clipPath>
</defs>
</svg>
