<?xml version="1.0" encoding="UTF-8"?>
<svg id="Layer_2" data-name="Layer 2" xmlns="http://www.w3.org/2000/svg" viewBox="0 0 46 46">
  <defs>
    <style>
      .cls-1 {
        fill: #fff;
      }

      .cls-2 {
        fill-rule: evenodd;
      }
    </style>
  </defs>
  <g id="Layer_1-2" data-name="Layer 1">
    <g>
      <circle class="cls-1" cx="23" cy="23" r="23"/>
      <path class="cls-2" d="M31.82,26.99l-3.1-.35c-.74-.09-1.48,.17-2,.7l-2.25,2.25c-3.46-1.76-6.29-4.58-8.05-8.05l2.26-2.26c.53-.53,.78-1.26,.7-2l-.35-3.08c-.15-1.23-1.18-2.16-2.43-2.16h-2.11c-1.38,0-2.53,1.15-2.44,2.53,.65,10.43,8.99,18.76,19.41,19.41,1.38,.09,2.53-1.06,2.53-2.44v-2.11c.01-1.23-.92-2.27-2.15-2.42Z"/>
    </g>
  </g>
</svg>