<svg width="46" height="46" viewBox="0 0 46 46" fill="none" xmlns="http://www.w3.org/2000/svg">
<circle cx="23" cy="23" r="23" fill="white"/>
<g clip-path="url(#clip0_3_72)">
<path d="M33.9878 23.2245C33.9878 22.2413 33.9096 21.5237 33.7403 20.7796H22.7291V25.2176H29.1924C29.0621 26.3205 28.3585 27.9815 26.7947 29.0976L26.7728 29.2461L30.2543 31.9963L30.4955 32.0209C32.7108 29.9347 33.9878 26.8653 33.9878 23.2245" fill="#4285F4"/>
<path d="M22.7291 34.9176C25.8956 34.9176 28.5539 33.8545 30.4955 32.0209L26.7947 29.0976C25.8044 29.8018 24.4752 30.2934 22.7291 30.2934C19.6277 30.2934 16.9955 28.2074 16.0572 25.324L15.9196 25.3359L12.2995 28.1927L12.2521 28.3269C14.1807 32.2334 18.1421 34.9176 22.7291 34.9176Z" fill="#34A853"/>
<path d="M16.0572 25.324C15.8096 24.5799 15.6663 23.7826 15.6663 22.9588C15.6663 22.1349 15.8096 21.3377 16.0441 20.5936L16.0376 20.4351L12.3721 17.5324L12.2521 17.5906C11.4573 19.2117 11.0012 21.0321 11.0012 22.9588C11.0012 24.8855 11.4573 26.7058 12.2521 28.3269L16.0572 25.324" fill="#FBBC05"/>
<path d="M22.7291 15.624C24.9313 15.624 26.4168 16.594 27.2638 17.4046L30.5737 14.1093C28.5409 12.1826 25.8956 11 22.7291 11C18.1421 11 14.1807 13.6841 12.2521 17.5906L16.0441 20.5936C16.9955 17.7102 19.6277 15.624 22.7291 15.624" fill="#EB4335"/>
</g>
<defs>
<clipPath id="clip0_3_72">
<rect width="23" height="24" fill="white" transform="translate(11 11)"/>
</clipPath>
</defs>
</svg>
