<svg width="46" height="46" viewBox="0 0 46 46" fill="none" xmlns="http://www.w3.org/2000/svg">
<circle cx="23" cy="23" r="23" fill="white"/>
<g clip-path="url(#clip0_1_22)">
<path d="M27.125 12H18.875C17.0516 12 15.303 12.7243 14.0136 14.0136C12.7243 15.303 12 17.0516 12 18.875L12 27.125C12 28.9484 12.7243 30.697 14.0136 31.9864C15.303 33.2757 17.0516 34 18.875 34H27.125C28.9484 34 30.697 33.2757 31.9864 31.9864C33.2757 30.697 34 28.9484 34 27.125V18.875C34 17.0516 33.2757 15.303 31.9864 14.0136C30.697 12.7243 28.9484 12 27.125 12V12ZM31.9375 27.125C31.9375 29.7787 29.7787 31.9375 27.125 31.9375H18.875C16.2213 31.9375 14.0625 29.7787 14.0625 27.125V18.875C14.0625 16.2213 16.2213 14.0625 18.875 14.0625H27.125C29.7787 14.0625 31.9375 16.2213 31.9375 18.875V27.125Z" fill="url(#paint0_linear_1_22)"/>
<path d="M23 17.5C21.5413 17.5 20.1424 18.0795 19.1109 19.1109C18.0795 20.1424 17.5 21.5413 17.5 23C17.5 24.4587 18.0795 25.8576 19.1109 26.8891C20.1424 27.9205 21.5413 28.5 23 28.5C24.4587 28.5 25.8576 27.9205 26.8891 26.8891C27.9205 25.8576 28.5 24.4587 28.5 23C28.5 21.5413 27.9205 20.1424 26.8891 19.1109C25.8576 18.0795 24.4587 17.5 23 17.5ZM23 26.4375C22.0887 26.4364 21.2149 26.0739 20.5705 25.4295C19.9261 24.7851 19.5636 23.9113 19.5625 23C19.5625 21.1039 21.1052 19.5625 23 19.5625C24.8948 19.5625 26.4375 21.1039 26.4375 23C26.4375 24.8948 24.8948 26.4375 23 26.4375Z" fill="url(#paint1_linear_1_22)"/>
<path d="M28.9125 17.8204C29.3173 17.8204 29.6454 17.4923 29.6454 17.0875C29.6454 16.6827 29.3173 16.3546 28.9125 16.3546C28.5077 16.3546 28.1796 16.6827 28.1796 17.0875C28.1796 17.4923 28.5077 17.8204 28.9125 17.8204Z" fill="url(#paint2_linear_1_22)"/>
</g>
<defs>
<linearGradient id="paint0_linear_1_22" x1="14.013" y1="31.987" x2="31.987" y2="14.013" gradientUnits="userSpaceOnUse">
<stop stop-color="#FFC107"/>
<stop offset="0.507" stop-color="#F44336"/>
<stop offset="0.99" stop-color="#9C27B0"/>
</linearGradient>
<linearGradient id="paint1_linear_1_22" x1="19.1115" y1="26.8885" x2="26.8885" y2="19.1115" gradientUnits="userSpaceOnUse">
<stop stop-color="#FFC107"/>
<stop offset="0.507" stop-color="#F44336"/>
<stop offset="0.99" stop-color="#9C27B0"/>
</linearGradient>
<linearGradient id="paint2_linear_1_22" x1="28.3941" y1="17.6059" x2="29.4309" y2="16.5691" gradientUnits="userSpaceOnUse">
<stop stop-color="#FFC107"/>
<stop offset="0.507" stop-color="#F44336"/>
<stop offset="0.99" stop-color="#9C27B0"/>
</linearGradient>
<clipPath id="clip0_1_22">
<rect width="22" height="22" fill="white" transform="translate(12 12)"/>
</clipPath>
</defs>
</svg>
