<?xml version="1.0" encoding="UTF-8"?>
<svg id="Layer_2" data-name="Layer 2" xmlns="http://www.w3.org/2000/svg" viewBox="0 0 46 46">
  <defs>
    <style>
      .cls-1 {
        fill: #fff;
      }
    </style>
  </defs>
  <g id="Layer_1-2" data-name="Layer 1">
    <g>
      <circle class="cls-1" cx="23" cy="23" r="23"/>
      <path d="M37.09,21.68c-.67-7.19-6.73-12.84-14.09-12.84s-13.43,5.65-14.09,12.84h-.06v2.64h.06c.67,7.19,6.73,12.84,14.09,12.84s13.43-5.65,14.09-12.84h.06v-2.64h-.06Zm-2.65,0h-5.33c-.13-3.55-.8-7.01-1.98-9.44,3.93,1.51,6.82,5.11,7.32,9.44Zm-11.44,12.84c-1.12,0-3.22-3.59-3.47-10.2h6.95c-.25,6.61-2.36,10.2-3.47,10.2Zm-3.47-12.84c.25-6.61,2.36-10.2,3.47-10.2s3.22,3.59,3.47,10.2h-6.95Zm-.65-9.44c-1.18,2.43-1.85,5.89-1.98,9.44h-5.33c.49-4.32,3.39-7.93,7.32-9.44Zm-7.32,12.07h5.33c.13,3.55,.8,7.01,1.98,9.44-3.93-1.51-6.82-5.11-7.32-9.44Zm15.57,9.44c1.18-2.43,1.85-5.89,1.98-9.44h5.33c-.49,4.32-3.39,7.93-7.32,9.44Z"/>
    </g>
  </g>
</svg>