<svg id="Layer_1" data-name="Layer 1" xmlns="http://www.w3.org/2000/svg" viewBox="0 0 46 46"><defs><style>.cls-1{fill:#fff;}.cls-2{fill:#ff0002;fill-rule:evenodd;}</style></defs><circle class="cls-1" cx="23" cy="23" r="23"/><g id="Page-1"><g id="Social-Icons---Isolated"><path id="Youtube" class="cls-2" d="M20.73,25.87V19.65l5.94,3.12Zm13-7.3a4.81,4.81,0,0,0-.88-2.19,3.12,3.12,0,0,0-2.2-.94c-3.07-.22-7.69-.22-7.69-.22h0s-4.62,0-7.69.22a3.16,3.16,0,0,0-2.21.94,4.88,4.88,0,0,0-.87,2.19A34,34,0,0,0,12,22.16v1.68a33.63,33.63,0,0,0,.22,3.58,4.88,4.88,0,0,0,.87,2.19,3.68,3.68,0,0,0,2.43.95c1.76.17,7.47.22,7.47.22s4.62,0,7.69-.23a3.08,3.08,0,0,0,2.2-.94,4.81,4.81,0,0,0,.88-2.19A33.63,33.63,0,0,0,34,23.84V22.16a34,34,0,0,0-.22-3.59Z" transform="translate(0 0)"/></g></g></svg>